<svg width="384" height="140" viewBox="0 0 384 140" fill="none" xmlns="http://www.w3.org/2000/svg">
<rect x="0.5" y="0.5" width="383" height="139" fill="black" stroke="#181823"/>
<path d="M204.775 56H178.334C178.255 56 178.18 56.0276 178.119 56.0779C178.059 56.1282 178.019 56.198 178.005 56.2751C177.991 56.3523 178.005 56.4318 178.044 56.4998C178.083 56.5677 178.145 56.6198 178.218 56.6469L202.134 64.4771C202.162 64.486 202.191 64.4851 202.218 64.4744C202.245 64.4637 202.267 64.444 202.281 64.4187L205.849 57.7988C205.95 57.613 206 57.4043 205.995 57.1932C205.99 56.9822 205.931 56.7759 205.823 56.5946C205.715 56.4133 205.561 56.2633 205.378 56.159C205.194 56.0548 204.987 56 204.775 56Z" fill="#8491A0"/>
<path d="M178.006 83.6785C178.006 83.7504 178.03 83.8202 178.074 83.877C178.118 83.9337 178.18 83.9741 178.25 83.9917C178.32 84.0093 178.393 84.0032 178.459 83.9742C178.525 83.9453 178.579 83.8952 178.613 83.8319L183.214 75.3098C183.318 75.1162 183.473 74.9544 183.662 74.8417C183.851 74.729 184.067 74.6694 184.287 74.6694H196.024C196.244 74.6694 196.46 74.6099 196.649 74.497C196.838 74.3842 196.993 74.2223 197.098 74.0285L200.605 67.5258C200.613 67.511 200.617 67.4944 200.616 67.4776C200.616 67.4608 200.611 67.4444 200.603 67.4299C200.594 67.4155 200.582 67.4036 200.567 67.3953C200.553 67.387 200.536 67.3826 200.519 67.3826H179.226C178.902 67.3826 178.592 67.5112 178.363 67.7399C178.134 67.9687 178.006 68.279 178.006 68.6025V83.6785Z" fill="#8491A0"/>
</svg>
