<svg width="384" height="140" viewBox="0 0 384 140" fill="none" xmlns="http://www.w3.org/2000/svg">
<rect x="0.5" y="0.5" width="383" height="139" fill="black" stroke="#181823"/>
<path d="M166.643 69.1573C169.329 68.2706 169.817 66.0292 169.81 64.2027C169.805 61.4142 167.825 59.0018 161.962 59.0018L151.02 59V79.9568H161.934C167.831 79.9568 170.001 76.9471 170.001 73.9324C170.001 70.2819 166.643 69.1573 166.643 69.1573ZM156.212 63.5593H163.579L163.606 63.5647C164.438 63.7111 165.043 64.414 165.043 65.2386C165.043 66.0823 164.394 66.8766 163.537 66.9929L156.217 67.0039L156.212 63.5593ZM163.225 75.0728H156.212V71.5641H163.397L163.414 71.5659C164.308 71.6684 164.985 72.4069 164.985 73.2846C164.985 74.241 164.183 75.0581 163.225 75.0728Z" fill="#8491A0"/>
<path d="M194.504 59.0027H212.995L212.985 63.5767H199.642L199.654 66.9546H211.684V71.5521H199.654V75.2073H212.999L212.997 80H194.504V59.0027Z" fill="#8491A0"/>
<path d="M183.749 59.0303H172.566V79.9938H177.701V71.5121C177.701 71.5121 183.355 71.5057 183.356 71.5057C184.976 71.5304 186.235 72.8492 186.235 74.4754V79.9755L191.262 79.9737L191.252 73.2077C191.252 70.0735 188.206 69.1474 188.206 69.1474C188.206 69.1474 191.32 68.2211 191.32 64.5157C191.32 59.982 187.4 59.0303 183.749 59.0303ZM186.551 65.5343C186.459 66.2234 185.766 66.9711 184.9 66.9711L177.684 66.9739V63.617H184.904C185.766 63.617 186.442 64.2485 186.551 65.0769V65.5343Z" fill="#8491A0"/>
<path d="M147.69 74.928C147.616 74.9299 140.671 75.0634 138.273 74.8309C134.411 74.4549 133.043 71.6115 133.043 69.2906C133.043 66.3969 135.028 64.2674 138.102 63.8675C139.565 63.6771 147.563 63.7668 147.647 63.7676L147.815 63.7696L147.832 59.0024L147.663 59.0034L138.61 59.0199C137.603 59.0812 135.932 59.1819 134.221 59.8774C132.578 60.6259 131.147 61.7755 130.079 63.206C128.72 65.027 128 67.1877 128 69.4543C128 70.1673 128.057 70.8748 128.173 71.5538C128.824 74.7322 130.92 77.3623 133.926 78.7772C134.941 79.221 136.506 79.7536 139.663 79.9293C139.669 79.9293 141.363 79.9649 141.363 79.9649L147.674 79.9713H147.841L147.858 74.926L147.69 74.928Z" fill="#8491A0"/>
</svg>

<svg viewBox="0 0 384 140" xmlns="http://www.w3.org/2000/svg">
<rect x="0.5" y="0.5" />
<path d="M166.643 69.1573C169.329 68.2706 169.817 66.0292 169.81 64.2027C169.805 61.4142 167.825 59.0018 161.962 59.0018L151.02 59V79.9568H161.934C167.831 79.9568 170.001 76.9471 170.001 73.9324C170.001 70.2819 166.643 69.1573 166.643 69.1573ZM156.212 63.5593H163.579L163.606 63.5647C164.438 63.7111 165.043 64.414 165.043 65.2386C165.043 66.0823 164.394 66.8766 163.537 66.9929L156.217 67.0039L156.212 63.5593ZM163.225 75.0728H156.212V71.5641H163.397L163.414 71.5659C164.308 71.6684 164.985 72.4069 164.985 73.2846C164.985 74.241 164.183 75.0581 163.225 75.0728Z"/>
<path d="M194.504 59.0027H212.995L212.985 63.5767H199.642L199.654 66.9546H211.684V71.5521H199.654V75.2073H212.999L212.997 80H194.504V59.0027Z"/>
<path d="M183.749 59.0303H172.566V79.9938H177.701V71.5121C177.701 71.5121 183.355 71.5057 183.356 71.5057C184.976 71.5304 186.235 72.8492 186.235 74.4754V79.9755L191.262 79.9737L191.252 73.2077C191.252 70.0735 188.206 69.1474 188.206 69.1474C188.206 69.1474 191.32 68.2211 191.32 64.5157C191.32 59.982 187.4 59.0303 183.749 59.0303ZM186.551 65.5343C186.459 66.2234 185.766 66.9711 184.9 66.9711L177.684 66.9739V63.617H184.904C185.766 63.617 186.442 64.2485 186.551 65.0769V65.5343Z"/>
<path d="M147.69 74.928C147.616 74.9299 140.671 75.0634 138.273 74.8309C134.411 74.4549 133.043 71.6115 133.043 69.2906C133.043 66.3969 135.028 64.2674 138.102 63.8675C139.565 63.6771 147.563 63.7668 147.647 63.7676L147.815 63.7696L147.832 59.0024L147.663 59.0034L138.61 59.0199C137.603 59.0812 135.932 59.1819 134.221 59.8774C132.578 60.6259 131.147 61.7755 130.079 63.206C128.72 65.027 128 67.1877 128 69.4543C128 70.1673 128.057 70.8748 128.173 71.5538C128.824 74.7322 130.92 77.3623 133.926 78.7772C134.941 79.221 136.506 79.7536 139.663 79.9293C139.669 79.9293 141.363 79.9649 141.363 79.9649L147.674 79.9713H147.841L147.858 74.926L147.69 74.928Z"/>
</svg>
