<svg class="skillset-icons__icon" viewBox="0 0 340 140" xmlns="http://www.w3.org/2000/svg">
<rect x="0.5" y="0.5" width="339" height="139" fill="transparent"/>
<path d="M200.253 66.8638C200.407 66.8638 200.559 66.8537 200.707 66.834L206.517 75.2837C205.975 75.8904 205.646 76.6908 205.646 77.5681C205.646 79.4634 207.182 81 209.078 81C210.973 81 212.51 79.4634 212.51 77.5681C212.51 75.6727 210.973 74.1362 209.078 74.1362C208.635 74.1362 208.212 74.2199 207.824 74.3725L202.247 66.2255C203.117 65.603 203.685 64.5837 203.685 63.4319C203.685 61.5365 202.148 60 200.253 60C198.357 60 196.821 61.5365 196.821 63.4319C196.821 64.6279 197.433 65.681 198.361 66.2953L192.835 74.3096C192.496 74.1971 192.132 74.1362 191.755 74.1362C191.427 74.1362 191.11 74.1822 190.809 74.2681L185.313 66.2953C186.24 65.681 186.852 64.6279 186.852 63.4319C186.852 61.5365 185.316 60 183.42 60C181.525 60 179.988 61.5365 179.988 63.4319C179.988 64.5788 180.551 65.5943 181.415 66.2175L175.763 74.4037C175.353 74.2314 174.904 74.1362 174.432 74.1362C172.537 74.1362 171 75.6727 171 77.5681C171 79.4634 172.537 81 174.432 81C176.327 81 177.864 79.4634 177.864 77.5681C177.864 76.7409 177.571 75.9821 177.084 75.3895L182.966 66.834C183.115 66.8537 183.266 66.8638 183.42 66.8638C183.523 66.8638 183.625 66.8593 183.726 66.8504L189.416 75.0564C188.744 75.6829 188.323 76.5764 188.323 77.5681C188.323 79.4634 189.86 81 191.755 81C193.65 81 195.187 79.4634 195.187 77.5681C195.187 76.6253 194.807 75.7713 194.191 75.1511L199.947 66.8504C200.048 66.8593 200.15 66.8638 200.253 66.8638Z"/>
</svg>
