<svg width="340" height="140" viewBox="0 0 340 140" fill="none" xmlns="http://www.w3.org/2000/svg">
<rect x="0.5" y="0.5" width="339" height="139" fill="black" stroke="#181823"/>
<path d="M154.513 69.0984C153.128 73.3121 149.741 75.6866 145.161 75.6866C139.465 75.6866 135 71.1672 135 65.3819C135 59.6741 139.465 55.0003 144.968 55.0003C150.087 55.0003 155.013 59.2146 154.975 66.2246H138.31C138.733 70.3242 141.889 72.7376 145.161 72.7376C147.97 72.7376 149.971 71.3968 151.049 69.0984H154.513ZM151.357 63.3134C150.549 60.095 147.855 57.9501 144.968 57.9501C142.236 57.9501 139.349 59.9426 138.503 63.3134H151.357ZM166.482 75.6869C163.634 75.6869 161.17 74.1548 159.747 72.2395V84H156.475V55.4984H159.631V58.6393C161.017 56.6479 163.556 55 166.482 55C172.177 55 176.373 59.6355 176.373 65.3056C176.373 71.0523 172.177 75.6869 166.482 75.6869ZM166.482 57.9887C162.825 57.9887 159.747 61.2834 159.747 65.3056C159.747 69.3658 162.825 72.699 166.482 72.699C170.176 72.699 173.101 69.3658 173.101 65.3056C173.101 61.2834 170.176 57.9887 166.482 57.9887ZM177.797 55.4984H181.068V75.2274H177.797V55.4984ZM182.529 65.3937C182.529 59.6366 187.224 55.0059 193.167 55.0059C199.112 55.0059 203.807 59.6366 203.807 65.3937C203.807 71.1507 199.069 75.6973 193.167 75.6973C187.267 75.6973 182.529 71.1507 182.529 65.3937ZM194.066 58.149C188.65 57.6777 185.638 61.7815 185.638 66.5627C185.638 71.3428 189.597 75.2196 194.478 75.2196C196.305 75.2229 198.089 74.6668 199.589 73.6268L198.363 70.5214C199.629 69.2086 200.361 67.3937 200.361 65.3897C200.361 61.4272 197.581 58.4782 194.066 58.149Z" fill="#8491A0"/>
<path d="M190.214 67.3765L199.865 75.1926H205L195.598 67.3765" fill="#8491A0"/>
</svg>
